<svg width="530" height="531" viewBox="0 0 530 531" fill="none" xmlns="http://www.w3.org/2000/svg">
<path d="M529.999 265.147C529.999 411.461 411.398 530.059 265.096 530.059C118.793 530.059 0.194336 411.461 0.194336 265.147C0.194336 118.848 118.793 0.250016 265.096 0.250016C411.398 0.250016 529.999 118.848 529.999 265.147Z" fill="white"/>
<path d="M343.581 244.613L339.167 280.045C338.424 285.965 333.409 290.416 327.465 290.416H270.066V438.591C264.007 439.135 257.877 439.414 251.676 439.414C237.815 439.414 224.273 438.018 211.191 435.389V290.416H167.044C162.991 290.416 159.683 287.096 159.683 283.027V238.693C159.683 234.624 162.991 231.304 167.044 231.304H211.191V164.789C211.191 123.981 244.141 90.8999 284.784 90.8999H336.292C340.344 90.8999 343.65 94.2198 343.65 98.2888V142.622C343.65 146.691 340.344 150.011 336.292 150.011H299.496C283.246 150.011 270.066 163.247 270.066 179.582V231.304H331.878C338.972 231.304 344.457 237.548 343.581 244.613Z" fill="#021742"/>
</svg>
