<svg width="530" height="531" viewBox="0 0 530 531" fill="none" xmlns="http://www.w3.org/2000/svg">
<path d="M529.972 265.147C529.972 411.461 411.374 530.059 265.075 530.059C118.775 530.059 0.170166 411.461 0.170166 265.147C0.170166 118.848 118.775 0.250016 265.075 0.250016C411.374 0.250016 529.972 118.848 529.972 265.147Z" fill="white"/>
<path d="M380.068 332.221C380.068 358.678 358.604 380.141 332.162 380.141H197.995C171.553 380.141 150.074 358.678 150.074 332.221V198.068C150.074 171.611 171.553 150.148 197.995 150.148H332.162C358.604 150.148 380.068 171.611 380.068 198.068V332.221ZM336.952 126.195H193.204C156.168 126.195 126.121 156.241 126.121 193.278V337.011C126.121 374.048 156.168 404.094 193.204 404.094H336.952C373.989 404.094 404.021 374.048 404.021 337.011V193.278C404.021 156.241 373.989 126.195 336.952 126.195Z" fill="#021742"/>
<path d="M265.201 313.076C238.808 313.076 217.279 291.562 217.279 265.154C217.279 238.761 238.808 217.247 265.201 217.247C291.609 217.247 313.123 238.761 313.123 265.154C313.123 291.562 291.609 313.076 265.201 313.076ZM265.201 193.286C225.519 193.286 193.346 225.487 193.346 265.154C193.346 304.822 225.519 337.023 265.201 337.023C304.869 337.023 337.07 304.822 337.07 265.154C337.07 225.487 304.869 193.286 265.201 193.286Z" fill="#021742"/>
<path d="M341.87 202.872C333.944 202.872 327.506 196.421 327.506 188.494C327.506 180.568 333.944 174.117 341.87 174.117C349.796 174.117 356.248 180.568 356.248 188.494C356.248 196.421 349.796 202.872 341.87 202.872Z" fill="#021742"/>
</svg>
