<svg width="530" height="530" viewBox="0 0 530 530" fill="none" xmlns="http://www.w3.org/2000/svg">
<path d="M529.8 264.907C529.8 411.213 411.2 529.813 264.907 529.813C118.6 529.813 0 411.213 0 264.907C0 118.6 118.6 -1.72488e-05 264.907 -1.72488e-05C411.2 -1.72488e-05 529.8 118.6 529.8 264.907Z" fill="white"/>
<path d="M205.2 159.973C205.2 178.813 189.92 194.08 171.08 194.08C152.24 194.08 136.96 178.813 136.96 159.973C136.96 141.12 152.24 125.853 171.08 125.853C189.92 125.853 205.2 141.12 205.2 159.973Z" fill="#021742"/>
<path d="M196.973 387.427H145.187C143.787 387.427 142.64 386.28 142.64 384.88V219.373C142.64 217.973 143.787 216.827 145.187 216.827H196.973C198.373 216.827 199.507 217.973 199.507 219.373V384.88C199.507 386.28 198.373 387.427 196.973 387.427Z" fill="#021742"/>
<path d="M392.853 279.387V376.053C392.853 382.307 387.733 387.427 381.48 387.427H347.36C341.107 387.427 335.987 382.307 335.987 376.053V296.44C335.987 280.747 323.253 268.013 307.547 268.013C291.853 268.013 279.12 280.747 279.12 296.44V376.053C279.12 382.307 274 387.427 267.747 387.427H233.627C227.373 387.427 222.253 382.307 222.253 376.053V228.2C222.253 221.947 227.373 216.827 233.627 216.827H267.747C274 216.827 279.12 221.947 279.12 228.2V235.48C290.493 220.76 309.32 211.147 330.293 211.147C361.693 211.147 392.853 233.893 392.853 279.387Z" fill="#021742"/>
</svg>
