<svg width="530" height="530" viewBox="0 0 530 530" fill="none" xmlns="http://www.w3.org/2000/svg">
<path d="M529.803 264.893C529.803 411.2 411.205 529.8 264.904 529.8H264.903C118.601 529.8 0 411.2 0 264.893C0 118.6 118.601 1.93715e-05 264.903 1.93715e-05H264.904C411.205 1.93715e-05 529.803 118.6 529.803 264.893Z" fill="white"/>
<path d="M317.407 333.147V201.893C317.407 201.893 332.204 226.56 385.704 228.067C388.556 228.16 390.912 225.813 390.912 222.96V185.853C390.912 183.093 388.709 180.907 385.949 180.747C344.455 178.4 324.748 146.587 322.815 117.4C322.636 114.693 320.275 112.64 317.56 112.64H275.259C272.439 112.64 270.153 114.92 270.153 117.747V326.4C270.153 349.067 252.833 368.787 230.192 369.853C204.311 371.08 183.271 348.867 186.471 322.627C188.731 304.08 203.615 288.893 222.117 286.32C225.792 285.813 229.391 285.773 232.863 286.16C235.937 286.507 238.651 284.213 238.651 281.12V243.933C238.651 241.28 236.639 239 233.997 238.84C228.688 238.493 223.251 238.613 217.728 239.24C176.915 243.867 143.981 276.893 139.46 317.707C133.495 371.573 175.499 417.16 228.151 417.16C277.445 417.16 317.407 377.2 317.407 327.907" fill="#021742"/>
</svg>
