<svg width="530" height="531" viewBox="0 0 530 531" fill="none" xmlns="http://www.w3.org/2000/svg">
<path d="M529.978 265.138C529.978 411.447 411.382 530.042 265.074 530.042C118.766 530.042 0.169922 411.447 0.169922 265.138C0.169922 118.847 118.766 0.234625 265.074 0.234625C411.382 0.234625 529.978 118.847 529.978 265.138Z" fill="white"/>
<path d="M301.756 274.993L238.266 306.723C230.931 310.398 222.314 305.075 222.314 296.886V233.411C222.314 225.221 230.931 219.899 238.266 223.558L301.756 255.303C309.867 259.358 309.867 270.938 301.756 274.993ZM379.234 152.907H150.919C128.345 152.907 110.065 171.188 110.065 193.745V336.551C110.065 359.109 128.345 377.389 150.919 377.389H379.234C401.792 377.389 420.072 359.109 420.072 336.551V193.745C420.072 171.188 401.792 152.907 379.234 152.907Z" fill="#021742"/>
</svg>
